/* XPM */
static char *_ea8fe83fd1f40bfc4a9b81f1299a8249gkfUUrRWgT0PMhK[] = {
/* columns rows colors chars-per-pixel */
"32 32 4 1 ",
"  c #AE6D4E",
". c #B57750",
"X c #BF7E53",
"o c #C8865A",
/* pixels */
" XXX X.X XXo XXoXXX X.X XXo XXo ",
" XXX X.X XXo XXoXXX X.X XXo XXo ",
" XXX XXX XXo XXXXXX XXX XXo XXX ",
" XXX XXX XXo XXXXXX XXX XXo XXX ",
" XXo     XXo XXXXXo     XXo XXX ",
" XXo     XXo XXXXXo     XXo XXX ",
" XXX XXX XXX XXXXXX XXX XXX XXX ",
" XXX XXX XXX XXXXXX XXX XXX XXX ",
" XXo X.o XXo XXoXXo X.o XXo XXo ",
" XXo X.o XXo XXoXXo X.o XXo XXo ",
" XXo XXo XXo X.oXXo XXo XXo X.o ",
" XXo XXo XXo X.oXXo XXo XXo X.o ",
" XXX XXo XXX XXXXXX XXo XXX XXX ",
" XXX XXo XXX XXXXXX XXo XXX XXX ",
" XXo XXX XXX    XXo XXX XXX     ",
" XXo XXX XXX    XXo XXX XXX     ",
" X.o XXo XXo XXXX.o XXo XXo XXX ",
" X.o XXo XXo XXXX.o XXo XXo XXX ",
" XXo XXX XXo X.XXXo XXX XXo X.X ",
" XXo XXX XXo X.XXXo XXX XXo X.X ",
"     XXo XXo XXo    XXo XXo XXo ",
"     XXo XXo XXo    XXo XXo XXo ",
" XXo XXX X.X XXoXXo XXX X.X XXo ",
" XXo XXX X.X XXoXXo XXX X.X XXo ",
" X.o XXX XXX XXoX.o XXX XXX XXo ",
" X.o XXX XXX XXoX.o XXX XXX XXo ",
" XXo XXo     XXoXXo XXo     XXo ",
" XXo XXo     XXoXXo XXo     XXo ",
" XXX XXo XXX XXXXXX XXo XXX XXX ",
" XXX XXo XXX XXXXXX XXo XXX XXX ",
" XXX XXo X.X XXXXXX XXo X.X XXX ",
" XXX XXo X.X XXXXXX XXo X.X XXX "
};
